<svg id="visual" viewBox="0 0 960 300" width="960" height="300" xmlns="http://www.w3.org/2000/svg" xmlns:xlink="http://www.w3.org/1999/xlink" version="1.1"><rect x="0" y="0" width="960" height="300" fill="#115ad8"></rect><path d="M0 174L26.7 183C53.3 192 106.7 210 160 216.8C213.3 223.7 266.7 219.3 320 210.2C373.3 201 426.7 187 480 178.8C533.3 170.7 586.7 168.3 640 171.2C693.3 174 746.7 182 800 192C853.3 202 906.7 214 933.3 220L960 226L960 0L933.3 0C906.7 0 853.3 0 800 0C746.7 0 693.3 0 640 0C586.7 0 533.3 0 480 0C426.7 0 373.3 0 320 0C266.7 0 213.3 0 160 0C106.7 0 53.3 0 26.7 0L0 0Z" fill="#115ad8"></path><path d="M0 182L26.7 172.8C53.3 163.7 106.7 145.3 160 138.2C213.3 131 266.7 135 320 137.2C373.3 139.3 426.7 139.7 480 142.3C533.3 145 586.7 150 640 154.7C693.3 159.3 746.7 163.7 800 172C853.3 180.3 906.7 192.7 933.3 198.8L960 205L960 0L933.3 0C906.7 0 853.3 0 800 0C746.7 0 693.3 0 640 0C586.7 0 533.3 0 480 0C426.7 0 373.3 0 320 0C266.7 0 213.3 0 160 0C106.7 0 53.3 0 26.7 0L0 0Z" fill="#0a43ba"></path><path d="M0 158L26.7 148.8C53.3 139.7 106.7 121.3 160 118.7C213.3 116 266.7 129 320 127.3C373.3 125.7 426.7 109.3 480 102.7C533.3 96 586.7 99 640 108.7C693.3 118.3 746.7 134.7 800 134.7C853.3 134.7 906.7 118.3 933.3 110.2L960 102L960 0L933.3 0C906.7 0 853.3 0 800 0C746.7 0 693.3 0 640 0C586.7 0 533.3 0 480 0C426.7 0 373.3 0 320 0C266.7 0 213.3 0 160 0C106.7 0 53.3 0 26.7 0L0 0Z" fill="#002c9d"></path><path d="M0 114L26.7 105.2C53.3 96.3 106.7 78.7 160 71.7C213.3 64.7 266.7 68.3 320 73.7C373.3 79 426.7 86 480 92.3C533.3 98.7 586.7 104.3 640 106.7C693.3 109 746.7 108 800 100.5C853.3 93 906.7 79 933.3 72L960 65L960 0L933.3 0C906.7 0 853.3 0 800 0C746.7 0 693.3 0 640 0C586.7 0 533.3 0 480 0C426.7 0 373.3 0 320 0C266.7 0 213.3 0 160 0C106.7 0 53.3 0 26.7 0L0 0Z" fill="#00137c"></path><path d="M0 26L26.7 27.7C53.3 29.3 106.7 32.7 160 39.7C213.3 46.7 266.7 57.3 320 55.5C373.3 53.7 426.7 39.3 480 40.3C533.3 41.3 586.7 57.7 640 58.5C693.3 59.3 746.7 44.7 800 41.7C853.3 38.7 906.7 47.3 933.3 51.7L960 56L960 0L933.3 0C906.7 0 853.3 0 800 0C746.7 0 693.3 0 640 0C586.7 0 533.3 0 480 0C426.7 0 373.3 0 320 0C266.7 0 213.3 0 160 0C106.7 0 53.3 0 26.7 0L0 0Z" fill="#000000"></path></svg>